<?xml version="1.0" encoding="UTF-8" standalone="no"?>
<!DOCTYPE svg PUBLIC "-//W3C//DTD SVG 1.1//EN" "http://www.w3.org/Graphics/SVG/1.1/DTD/svg11.dtd">
<svg width="100%" height="100%" viewBox="0 0 720 456" version="1.1" xmlns="http://www.w3.org/2000/svg" xmlns:xlink="http://www.w3.org/1999/xlink" xml:space="preserve" xmlns:serif="http://www.serif.com/" style="fill-rule:evenodd;clip-rule:evenodd;stroke-miterlimit:10;">
    <g transform="matrix(1,0,0,1,-389.008,-518.771)">
        <g transform="matrix(0.349847,0,0,0.349847,-7048.83,288.014)">
            <g transform="matrix(0.996167,0,0,0.996167,81.4936,2.52832)">
                <g transform="matrix(4.16667,0,0,4.16667,21808.3,661.36)">
                    <path d="M0,244.512C1.084,244.259 1.851,243.283 1.85,242.171C1.836,204.531 1.737,176.219 1.851,162.448C1.869,160.156 1.925,154.523 0.431,147.304C-1.755,136.744 -5.928,129.205 -7.851,126.009C-10.973,120.82 -16.048,113.973 -23.94,107.789C-33.074,100.632 -41.684,97.727 -44.29,96.905C-55.328,93.423 -64.393,93.959 -69.371,94.302C-74.989,94.688 -84.302,95.421 -94.689,100.69C-103.604,105.212 -109.468,111.125 -112.909,114.651C-113.912,115.679 -114.834,116.679 -115.676,117.633C-117.129,119.279 -119.85,118.232 -119.85,116.036L-119.85,2.747C-119.85,1.826 -120.372,0.967 -121.209,0.582C-125.003,-1.159 -128.294,-0.276 -130.085,0.521C-130.957,0.908 -131.522,1.762 -131.522,2.717L-131.522,242.48C-131.522,243.573 -130.788,244.538 -129.727,244.798C-127.896,245.246 -124.865,245.671 -121.572,244.807C-120.544,244.537 -119.85,243.572 -119.85,242.508L-119.85,150.835C-119.85,147.394 -119.079,144.006 -117.618,140.891C-117.131,139.852 -116.588,138.751 -115.984,137.603C-114.283,134.364 -111.86,129.816 -107.585,124.825C-104.271,120.958 -101.306,118.529 -98.594,116.307C-95.739,113.97 -92.562,111.394 -87.827,108.854C-85.52,107.615 -82.355,105.942 -77.89,104.713C-73.187,103.419 -69.552,103.309 -65.112,103.175C-60.369,103.032 -57.012,102.93 -52.571,103.885C-47.809,104.909 -44.479,106.572 -41.332,108.144C-35.578,111.018 -31.636,114.111 -29.975,115.479C-28.824,116.426 -25.277,119.421 -21.456,124.116C-20.372,125.447 -18.254,128.159 -16.014,131.924C-14.134,135.084 -11.935,138.783 -10.572,143.873C-10.267,145.013 -9.611,147.69 -9.389,151.445C-8.938,159.057 -8.908,194.074 -9.37,241.886C-9.381,242.986 -8.641,243.958 -7.576,244.233L-5.63,244.736C-4.174,245.111 -2.649,245.129 -1.186,244.788L0,244.512Z" style="fill:rgb(22,28,76);fill-rule:nonzero;"/>
                </g>
                <g transform="matrix(4.16667,0,0,4.16667,22029.9,1077.58)">
                    <path d="M0,142.283L0,0.121C0,-0.869 -0.555,-1.774 -1.4,-2.119C-5.504,-3.799 -8.994,-2.937 -10.856,-2.18C-11.723,-1.829 -12.305,-0.939 -12.305,0.074L-12.305,142.278C-12.305,143.314 -11.696,144.22 -10.801,144.554C-8.885,145.266 -5.344,146.082 -1.41,144.526C-0.557,144.188 0,143.277 0,142.283" style="fill:rgb(22,28,76);fill-rule:nonzero;"/>
                </g>
                <g transform="matrix(0,-4.16667,-4.16667,0,22004.3,849.546)">
                    <path d="M-16.406,-16.406C-25.467,-16.406 -32.814,-9.06 -32.814,0.001C-32.814,9.063 -25.467,16.406 -16.406,16.406C-7.344,16.406 0.001,9.063 0.001,0.001C0.001,-9.06 -7.344,-16.406 -16.406,-16.406" style="fill:rgb(255,175,0);fill-rule:nonzero;"/>
                </g>
                <g transform="matrix(1.29192,3.96132,3.96132,-1.29192,22859,1233.28)">
                    <path d="M-12.316,-16.972C-0.87,-14.255 11.317,-14.11 23.386,-16.972" style="fill:rgb(22,28,76);fill-rule:nonzero;stroke:rgb(0,174,239);stroke-width:2.87px;"/>
                </g>
                <g transform="matrix(4.16667,0,0,4.16667,23226.8,1591.11)">
                    <path d="M0,-111.668C-1.635,-113.805 -4.448,-116.967 -8.755,-119.713C-10.767,-120.995 -14.604,-123.388 -20.231,-124.327C-22.685,-124.737 -27.437,-125.471 -33.009,-123.499C-34.91,-122.826 -38.539,-121.26 -41.882,-117.82C-43.41,-116.247 -45.903,-113.619 -47.087,-109.302C-47.41,-108.125 -48.477,-104.03 -46.969,-99.482C-45.734,-95.76 -43.364,-93.51 -39.16,-90.018C-29.712,-82.168 -24.018,-78.542 -24.017,-78.542C-10.838,-70.148 -11.008,-71.439 -3.313,-66.119C8.11,-58.221 12.646,-52.498 14.314,-50.266C16.063,-47.928 18.507,-44.614 20.467,-39.619C21.049,-38.135 23.521,-31.578 23.307,-22.582C23.244,-19.973 23.104,-15.522 21.295,-10.16C18.641,-2.285 14.057,2.616 11.002,5.812C3.798,13.351 -3.738,16.665 -5.798,17.525C-12.503,20.323 -18.131,20.869 -21.77,21.193C-25.243,21.501 -31.256,21.988 -38.806,20.246C-41.637,19.593 -47.076,18.289 -53.121,14.449C-54.819,13.371 -59.393,10.295 -63.769,4.866C-65.348,2.907 -66.512,1.124 -67.318,-0.221C-67.011,-9.926 -66.282,-12.001 -65.662,-12.052C-65.051,-12.102 -64.65,-10.178 -62.586,-6.374C-62.473,-6.165 -60.831,-3.159 -59.154,-0.931C-56.549,2.529 -53.643,4.392 -50.873,6.167C-48.669,7.581 -44.697,10.08 -38.924,11.491C-34.613,12.545 -31.312,12.5 -26.62,12.438C-23.077,12.39 -20.327,12.353 -16.682,11.491C-12.12,10.413 -8.915,8.695 -7.099,7.706C-5.508,6.838 -1.279,4.403 3.194,-0.103C6.915,-3.852 10.775,-7.741 12.658,-14.182C12.964,-15.225 14.37,-20.281 13.25,-26.722C12.315,-32.1 10.081,-35.79 8.518,-38.317C6.22,-42.032 3.923,-44.346 1.183,-47.072C-0.333,-48.58 -3.91,-52.009 -11.239,-57.127C-13.172,-58.477 -13.688,-58.773 -24.964,-65.764C-34.4,-71.616 -36.754,-73.092 -40.226,-75.939C-42.516,-77.816 -45.095,-80.129 -47.797,-83.038C-51.021,-86.507 -52.917,-88.548 -54.659,-91.911C-57.31,-97.026 -57.749,-101.621 -57.854,-103.15C-57.994,-105.208 -58.228,-109.268 -56.434,-114.034C-54.516,-119.131 -51.356,-122.168 -49.69,-123.736C-46.341,-126.885 -43.079,-128.424 -40.936,-129.415C-40.238,-129.736 -36.835,-131.282 -31.943,-132.254C-28.995,-132.84 -24.694,-133.656 -19.166,-132.845C-14.432,-132.151 -11.023,-130.591 -9.82,-130.006C-5.207,-127.764 -2.119,-124.849 -0.355,-122.907L0,-111.668Z" style="fill:rgb(22,28,76);fill-rule:nonzero;"/>
                </g>
                <g transform="matrix(4.16667,0,0,4.16667,22823,673.104)">
                    <path d="M0,240.5L0,0.264C0,-0.49 -0.354,-1.213 -0.961,-1.662C-4.827,-4.519 -8.495,-2.855 -10.254,-1.693C-10.93,-1.246 -11.338,-0.498 -11.338,0.313L-11.338,240.562C-11.338,241.381 -10.928,242.146 -10.233,242.581C-8.563,243.63 -5.156,245.019 -1.114,242.529C-0.416,242.099 0,241.319 0,240.5" style="fill:rgb(22,28,76);fill-rule:nonzero;"/>
                </g>
                <g transform="matrix(4.16667,0,0,4.16667,22497.3,1080.24)">
                    <path d="M0,134.2C-36.911,134.2 -66.834,104.277 -66.834,67.366C-66.834,30.454 -36.911,0.532 0,0.532C36.912,0.532 66.835,30.454 66.835,67.366C66.835,104.277 36.912,134.2 0,134.2M77.906,60.615L66.836,26.672C53.194,4.334 28.587,-10.576 0.497,-10.576C-42.402,-10.576 -77.18,24.2 -77.18,67.099C-77.18,109.999 -42.402,144.776 0.497,144.776C43.396,144.776 78.173,109.999 78.173,67.099C78.173,64.916 78.083,62.753 77.906,60.615" style="fill:rgb(22,28,76);fill-rule:nonzero;"/>
                </g>
            </g>
            <g transform="matrix(4.24933,0,0,4.16667,19311.9,-36.5649)">
                <path d="M488.251,428.373L492.727,428.373L492.727,468.567L488.251,468.567L488.251,449.253L463.502,449.253L463.502,468.567L459.026,468.567L459.026,428.373L463.502,428.373L463.502,445.831L488.251,445.831L488.251,428.373Z" style="fill:rgb(22,28,76);fill-rule:nonzero;"/>
                <path d="M504.839,468.567L500.56,468.567L500.56,438.581L504.839,438.581L504.839,468.567ZM505.826,429.533C505.826,430.423 505.519,431.128 504.905,431.65C504.29,432.172 503.544,432.433 502.667,432.433C501.789,432.433 501.043,432.172 500.429,431.65C499.814,431.128 499.507,430.423 499.507,429.533C499.507,428.644 499.814,427.938 500.429,427.416C501.043,426.894 501.789,426.633 502.667,426.633C503.544,426.633 504.29,426.894 504.905,427.416C505.519,427.938 505.826,428.644 505.826,429.533Z" style="fill:rgb(22,28,76);fill-rule:nonzero;"/>
                <path d="M534.591,465.087C534.328,465.281 533.933,465.503 533.407,465.754C532.88,466.006 532.233,466.267 531.465,466.537C530.697,466.808 529.819,467.03 528.832,467.204C527.844,467.378 526.736,467.465 525.508,467.465C523.533,467.465 521.624,467.195 519.781,466.653C517.938,466.112 516.325,465.261 514.943,464.101C513.561,462.941 512.453,461.443 511.619,459.606C510.785,457.77 510.368,455.537 510.368,452.907C510.368,450.781 510.741,448.809 511.487,446.991C512.233,445.174 513.297,443.598 514.68,442.264C516.062,440.93 517.751,439.886 519.748,439.132C521.745,438.378 523.994,438.001 526.495,438.001C529.655,438.001 532.189,438.185 534.098,438.552C536.007,438.92 537.575,439.277 538.804,439.625L538.804,467.001C538.804,471.487 537.488,474.686 534.855,476.6C532.222,478.514 528.25,479.471 522.941,479.471C520.746,479.471 518.761,479.326 516.983,479.036C515.206,478.746 513.681,478.408 512.409,478.021L513.264,474.599C514.318,475.025 515.755,475.392 517.576,475.701C519.397,476.011 521.229,476.165 523.072,476.165C527.109,476.165 530.039,475.479 531.86,474.106C533.681,472.734 534.591,470.385 534.591,467.059L534.591,465.087ZM534.526,442.235C533.78,442.042 532.814,441.858 531.629,441.684C530.444,441.51 528.755,441.423 526.561,441.423C524.718,441.423 523.083,441.704 521.657,442.264C520.231,442.825 519.013,443.618 518.004,444.642C516.994,445.667 516.226,446.885 515.7,448.296C515.173,449.708 514.91,451.264 514.91,452.965C514.91,454.937 515.217,456.629 515.832,458.04C516.446,459.452 517.247,460.602 518.234,461.491C519.221,462.381 520.351,463.028 521.624,463.434C522.897,463.84 524.191,464.043 525.508,464.043C527.438,464.043 529.205,463.792 530.806,463.289C532.408,462.787 533.648,462.207 534.526,461.549L534.526,442.235Z" style="fill:rgb(22,28,76);fill-rule:nonzero;"/>
                <path d="M546.374,468.567L546.374,424.255L550.652,423.559L550.652,439.451C552.057,438.987 553.483,438.63 554.931,438.378C556.379,438.127 557.827,438.001 559.275,438.001C561.908,438.001 564.102,438.33 565.858,438.987C567.613,439.645 569.017,440.582 570.07,441.8C571.124,443.018 571.859,444.478 572.276,446.179C572.692,447.881 572.901,449.756 572.901,451.805L572.901,468.567L568.622,468.567L568.622,453.023C568.622,450.897 568.458,449.099 568.129,447.629C567.8,446.16 567.251,444.961 566.483,444.033C565.715,443.105 564.695,442.438 563.422,442.032C562.15,441.626 560.548,441.423 558.617,441.423C557.871,441.423 557.07,441.481 556.215,441.597C555.359,441.713 554.558,441.839 553.812,441.974C553.066,442.11 552.397,442.255 551.804,442.409C551.212,442.564 550.828,442.68 550.652,442.757L550.652,468.567L546.374,468.567Z" style="fill:rgb(22,28,76);fill-rule:nonzero;"/>
                <path d="M578.035,453.545C578.035,450.916 578.463,448.625 579.319,446.672C580.174,444.72 581.293,443.086 582.676,441.771C584.058,440.457 585.638,439.48 587.415,438.842C589.192,438.204 591.024,437.885 592.911,437.885C597.08,437.885 600.404,439.084 602.884,441.481C605.363,443.879 606.603,447.571 606.603,452.559C606.603,452.869 606.592,453.178 606.57,453.487C606.548,453.797 606.515,454.087 606.471,454.357L582.577,454.357C582.709,458.031 583.74,460.853 585.671,462.825C587.602,464.797 590.673,465.783 594.886,465.783C597.212,465.783 599.055,465.59 600.415,465.203C601.776,464.817 602.763,464.488 603.377,464.217L604.167,467.465C603.553,467.775 602.401,468.142 600.711,468.567C599.022,468.993 597.036,469.205 594.754,469.205C591.77,469.205 589.225,468.819 587.119,468.045C585.012,467.272 583.279,466.189 581.919,464.797C580.558,463.405 579.571,461.752 578.957,459.838C578.342,457.924 578.035,455.827 578.035,453.545ZM602.193,451.167C602.105,448.035 601.271,445.599 599.691,443.859C598.111,442.119 595.873,441.249 592.977,441.249C591.441,441.249 590.07,441.52 588.863,442.061C587.656,442.603 586.603,443.328 585.704,444.236C584.804,445.145 584.102,446.199 583.597,447.397C583.093,448.596 582.796,449.853 582.709,451.167L602.193,451.167Z" style="fill:rgb(22,28,76);fill-rule:nonzero;"/>
                <path d="M623.98,438.001C625.384,438.001 626.712,438.098 627.963,438.291C629.213,438.485 630.08,438.678 630.563,438.871L629.707,442.119C629.356,441.965 628.643,441.8 627.568,441.626C626.492,441.452 625.077,441.365 623.322,441.365C621.479,441.365 619.998,441.481 618.879,441.713C617.76,441.945 617.025,442.139 616.674,442.293L616.674,468.567L612.395,468.567L612.395,439.973C613.492,439.548 615.006,439.113 616.937,438.668C618.868,438.224 621.216,438.001 623.98,438.001Z" style="fill:rgb(22,28,76);fill-rule:nonzero;"/>
                <path d="M680.984,448.441C680.984,451.883 680.369,454.879 679.141,457.431C677.912,459.983 676.19,462.11 673.973,463.811C671.757,465.513 669.113,466.789 666.042,467.639C662.97,468.49 659.591,468.915 655.905,468.915C654.062,468.915 652.131,468.828 650.112,468.654C648.094,468.48 646.316,468.219 644.781,467.871L644.781,429.127C646.316,428.741 648.094,428.46 650.112,428.286C652.131,428.112 654.062,428.025 655.905,428.025C659.591,428.025 662.97,428.451 666.042,429.301C669.113,430.152 671.757,431.428 673.973,433.129C676.19,434.831 677.912,436.957 679.141,439.509C680.369,442.061 680.984,445.039 680.984,448.441ZM649.257,465.087C649.52,465.126 650.189,465.203 651.264,465.319C652.339,465.435 654.062,465.493 656.431,465.493C659.723,465.493 662.597,465.097 665.054,464.304C667.512,463.512 669.574,462.381 671.242,460.911C672.909,459.442 674.16,457.654 674.994,455.546C675.828,453.439 676.244,451.071 676.244,448.441C676.244,445.812 675.828,443.453 674.994,441.365C674.16,439.277 672.909,437.499 671.242,436.029C669.574,434.56 667.512,433.429 665.054,432.636C662.597,431.844 659.723,431.447 656.431,431.447C654.062,431.447 652.339,431.505 651.264,431.621C650.189,431.737 649.52,431.815 649.257,431.853L649.257,465.087Z" style="fill:rgb(22,28,76);fill-rule:nonzero;"/>
                <path d="M691.252,468.567L686.974,468.567L686.974,438.581L691.252,438.581L691.252,468.567ZM692.24,429.533C692.24,430.423 691.932,431.128 691.318,431.65C690.704,432.172 689.958,432.433 689.08,432.433C688.202,432.433 687.456,432.172 686.842,431.65C686.228,431.128 685.921,430.423 685.921,429.533C685.921,428.644 686.228,427.938 686.842,427.416C687.456,426.894 688.202,426.633 689.08,426.633C689.958,426.633 690.704,426.894 691.318,427.416C691.932,427.938 692.24,428.644 692.24,429.533Z" style="fill:rgb(22,28,76);fill-rule:nonzero;"/>
                <path d="M698.822,439.625C700.095,439.316 701.751,438.968 703.792,438.581C705.832,438.195 708.476,438.001 711.723,438.001C716.024,438.001 719.14,439.103 721.07,441.307C721.29,441.153 721.718,440.892 722.354,440.524C722.99,440.157 723.791,439.78 724.757,439.393C725.722,439.007 726.852,438.678 728.147,438.407C729.441,438.137 730.878,438.001 732.458,438.001C735.047,438.001 737.142,438.34 738.744,439.016C740.346,439.693 741.586,440.64 742.463,441.858C743.341,443.076 743.933,444.536 744.24,446.237C744.548,447.939 744.701,449.795 744.701,451.805L744.701,468.567L740.423,468.567L740.423,453.023C740.423,451.051 740.324,449.34 740.127,447.89C739.929,446.44 739.534,445.242 738.942,444.294C738.349,443.347 737.505,442.632 736.407,442.148C735.31,441.665 733.884,441.423 732.129,441.423C730.812,441.423 729.617,441.53 728.541,441.742C727.466,441.955 726.534,442.216 725.744,442.525C724.954,442.835 724.307,443.144 723.802,443.453C723.298,443.763 722.935,443.995 722.716,444.149C723.111,445.155 723.407,446.286 723.605,447.542C723.802,448.799 723.901,450.123 723.901,451.515L723.901,468.567L719.622,468.567L719.622,453.023C719.622,451.051 719.524,449.34 719.326,447.89C719.129,446.44 718.723,445.242 718.108,444.294C717.494,443.347 716.627,442.632 715.508,442.148C714.389,441.665 712.908,441.423 711.065,441.423C709.003,441.423 707.258,441.52 705.832,441.713C704.406,441.907 703.495,442.081 703.101,442.235L703.101,468.567L698.822,468.567L698.822,439.625Z" style="fill:rgb(22,28,76);fill-rule:nonzero;"/>
                <path d="M749.836,453.545C749.836,450.916 750.263,448.625 751.119,446.672C751.975,444.72 753.094,443.086 754.476,441.771C755.858,440.457 757.438,439.48 759.215,438.842C760.993,438.204 762.825,437.885 764.712,437.885C768.881,437.885 772.205,439.084 774.684,441.481C777.163,443.879 778.403,447.571 778.403,452.559C778.403,452.869 778.392,453.178 778.37,453.487C778.348,453.797 778.315,454.087 778.271,454.357L754.377,454.357C754.509,458.031 755.54,460.853 757.471,462.825C759.402,464.797 762.474,465.783 766.686,465.783C769.012,465.783 770.855,465.59 772.216,465.203C773.576,464.817 774.563,464.488 775.178,464.217L775.968,467.465C775.353,467.775 774.201,468.142 772.512,468.567C770.822,468.993 768.837,469.205 766.555,469.205C763.571,469.205 761.026,468.819 758.919,468.045C756.813,467.272 755.079,466.189 753.719,464.797C752.359,463.405 751.371,461.752 750.757,459.838C750.143,457.924 749.836,455.827 749.836,453.545ZM773.993,451.167C773.905,448.035 773.071,445.599 771.492,443.859C769.912,442.119 767.674,441.249 764.778,441.249C763.242,441.249 761.87,441.52 760.664,442.061C759.457,442.603 758.404,443.328 757.504,444.236C756.604,445.145 755.902,446.199 755.398,447.397C754.893,448.596 754.597,449.853 754.509,451.167L773.993,451.167Z" style="fill:rgb(22,28,76);fill-rule:nonzero;"/>
                <path d="M784.196,439.625C785.468,439.316 787.18,438.968 789.33,438.581C791.48,438.195 794.113,438.001 797.229,438.001C799.818,438.001 801.979,438.33 803.712,438.987C805.446,439.645 806.828,440.582 807.859,441.8C808.891,443.018 809.626,444.478 810.064,446.179C810.503,447.881 810.723,449.756 810.723,451.805L810.723,468.567L806.444,468.567L806.444,453.023C806.444,450.897 806.28,449.099 805.95,447.629C805.621,446.16 805.073,444.961 804.305,444.033C803.537,443.105 802.528,442.438 801.277,442.032C800.026,441.626 798.457,441.423 796.571,441.423C794.552,441.423 792.808,441.52 791.338,441.713C789.867,441.907 788.913,442.081 788.474,442.235L788.474,468.567L784.196,468.567L784.196,439.625Z" style="fill:rgb(22,28,76);fill-rule:nonzero;"/>
                <path d="M824.875,465.899C827.332,465.899 829.362,465.542 830.963,464.826C832.565,464.111 833.366,462.903 833.366,461.201C833.366,460.389 833.223,459.693 832.938,459.113C832.653,458.533 832.181,458.011 831.523,457.547C830.865,457.083 829.998,456.639 828.923,456.213C827.848,455.788 826.52,455.285 824.941,454.705C823.668,454.241 822.461,453.768 821.32,453.284C820.179,452.801 819.17,452.24 818.292,451.602C817.415,450.964 816.713,450.201 816.186,449.311C815.659,448.422 815.396,447.339 815.396,446.063C815.396,443.627 816.438,441.655 818.523,440.147C820.607,438.639 823.471,437.885 827.113,437.885C829.439,437.885 831.358,438.059 832.872,438.407C834.386,438.755 835.45,439.065 836.065,439.335L835.077,442.699C834.551,442.467 833.662,442.158 832.412,441.771C831.161,441.385 829.329,441.191 826.915,441.191C825.95,441.191 825.039,441.278 824.184,441.452C823.328,441.626 822.571,441.897 821.913,442.264C821.254,442.632 820.728,443.096 820.333,443.656C819.938,444.217 819.741,444.903 819.741,445.715C819.741,446.527 819.916,447.223 820.267,447.803C820.618,448.383 821.134,448.896 821.814,449.34C822.494,449.785 823.328,450.201 824.315,450.587C825.303,450.974 826.433,451.399 827.705,451.863C829.022,452.327 830.283,452.801 831.49,453.284C832.697,453.768 833.761,454.348 834.683,455.024C835.604,455.701 836.35,456.513 836.921,457.46C837.491,458.408 837.776,459.597 837.776,461.027C837.776,463.734 836.624,465.783 834.321,467.175C832.017,468.567 828.868,469.263 824.875,469.263C821.891,469.263 819.609,469.041 818.029,468.596C816.449,468.152 815.396,467.813 814.87,467.581L815.989,464.159C816.12,464.237 816.405,464.362 816.844,464.536C817.283,464.71 817.876,464.904 818.622,465.116C819.368,465.329 820.256,465.513 821.287,465.667C822.319,465.822 823.514,465.899 824.875,465.899Z" style="fill:rgb(22,28,76);fill-rule:nonzero;"/>
                <path d="M846.597,468.567L842.318,468.567L842.318,438.581L846.597,438.581L846.597,468.567ZM847.584,429.533C847.584,430.423 847.277,431.128 846.662,431.65C846.048,432.172 845.302,432.433 844.424,432.433C843.547,432.433 842.801,432.172 842.186,431.65C841.572,431.128 841.265,430.423 841.265,429.533C841.265,428.644 841.572,427.938 842.186,427.416C842.801,426.894 843.547,426.633 844.424,426.633C845.302,426.633 846.048,426.894 846.662,427.416C847.277,427.938 847.584,428.644 847.584,429.533Z" style="fill:rgb(22,28,76);fill-rule:nonzero;"/>
                <path d="M883.195,453.603C883.195,455.962 882.811,458.108 882.043,460.041C881.275,461.975 880.2,463.618 878.817,464.971C877.435,466.325 875.801,467.378 873.914,468.132C872.027,468.886 869.942,469.263 867.66,469.263C865.378,469.263 863.294,468.886 861.407,468.132C859.52,467.378 857.885,466.325 856.503,464.971C855.121,463.618 854.046,461.975 853.278,460.041C852.51,458.108 852.126,455.962 852.126,453.603C852.126,451.245 852.51,449.099 853.278,447.165C854.046,445.232 855.121,443.579 856.503,442.206C857.885,440.834 859.52,439.77 861.407,439.016C863.294,438.262 865.378,437.885 867.66,437.885C869.942,437.885 872.027,438.262 873.914,439.016C875.801,439.77 877.435,440.834 878.817,442.206C880.2,443.579 881.275,445.232 882.043,447.165C882.811,449.099 883.195,451.245 883.195,453.603ZM878.653,453.603C878.653,449.853 877.666,446.866 875.691,444.642C873.716,442.419 871.039,441.307 867.66,441.307C864.281,441.307 861.605,442.419 859.63,444.642C857.655,446.866 856.668,449.853 856.668,453.603C856.668,457.354 857.655,460.331 859.63,462.535C861.605,464.739 864.281,465.841 867.66,465.841C871.039,465.841 873.716,464.739 875.691,462.535C877.666,460.331 878.653,457.354 878.653,453.603Z" style="fill:rgb(22,28,76);fill-rule:nonzero;"/>
                <path d="M888.724,439.625C889.997,439.316 891.708,438.968 893.858,438.581C896.008,438.195 898.641,438.001 901.757,438.001C904.346,438.001 906.507,438.33 908.241,438.987C909.974,439.645 911.356,440.582 912.388,441.8C913.419,443.018 914.154,444.478 914.593,446.179C915.032,447.881 915.251,449.756 915.251,451.805L915.251,468.567L910.972,468.567L910.972,453.023C910.972,450.897 910.808,449.099 910.479,447.629C910.15,446.16 909.601,444.961 908.833,444.033C908.065,443.105 907.056,442.438 905.805,442.032C904.555,441.626 902.986,441.423 901.099,441.423C899.08,441.423 897.336,441.52 895.866,441.713C894.396,441.907 893.441,442.081 893.003,442.235L893.003,468.567L888.724,468.567L888.724,439.625Z" style="fill:rgb(22,28,76);fill-rule:nonzero;"/>
                <path d="M929.403,465.899C931.861,465.899 933.89,465.542 935.492,464.826C937.094,464.111 937.894,462.903 937.894,461.201C937.894,460.389 937.752,459.693 937.467,459.113C937.181,458.533 936.71,458.011 936.051,457.547C935.393,457.083 934.526,456.639 933.451,456.213C932.376,455.788 931.049,455.285 929.469,454.705C928.196,454.241 926.99,453.768 925.849,453.284C924.708,452.801 923.698,452.24 922.821,451.602C921.943,450.964 921.241,450.201 920.714,449.311C920.188,448.422 919.925,447.339 919.925,446.063C919.925,443.627 920.967,441.655 923.051,440.147C925.136,438.639 927.999,437.885 931.641,437.885C933.967,437.885 935.887,438.059 937.401,438.407C938.915,438.755 939.979,439.065 940.593,439.335L939.606,442.699C939.079,442.467 938.191,442.158 936.94,441.771C935.689,441.385 933.857,441.191 931.444,441.191C930.478,441.191 929.568,441.278 928.712,441.452C927.856,441.626 927.099,441.897 926.441,442.264C925.783,442.632 925.256,443.096 924.861,443.656C924.466,444.217 924.269,444.903 924.269,445.715C924.269,446.527 924.444,447.223 924.795,447.803C925.147,448.383 925.662,448.896 926.342,449.34C927.023,449.785 927.856,450.201 928.844,450.587C929.831,450.974 930.961,451.399 932.234,451.863C933.55,452.327 934.812,452.801 936.018,453.284C937.225,453.768 938.289,454.348 939.211,455.024C940.132,455.701 940.878,456.513 941.449,457.46C942.019,458.408 942.305,459.597 942.305,461.027C942.305,463.734 941.153,465.783 938.849,467.175C936.545,468.567 933.396,469.263 929.403,469.263C926.419,469.263 924.137,469.041 922.557,468.596C920.978,468.152 919.925,467.813 919.398,467.581L920.517,464.159C920.649,464.237 920.934,464.362 921.373,464.536C921.811,464.71 922.404,464.904 923.15,465.116C923.896,465.329 924.784,465.513 925.816,465.667C926.847,465.822 928.043,465.899 929.403,465.899Z" style="fill:rgb(22,28,76);fill-rule:nonzero;"/>
            </g>
        </g>
    </g>
</svg>
